<?xml version="1.0" standalone="no"?>
<!DOCTYPE svg PUBLIC "-//W3C//DTD SVG 20010904//EN"
 "http://www.w3.org/TR/2001/REC-SVG-20010904/DTD/svg10.dtd">
<svg version="1.0" xmlns="http://www.w3.org/2000/svg"
 width="1672.000000pt" height="1484.000000pt" viewBox="0 0 1672.000000 1484.000000"
 preserveAspectRatio="xMidYMid meet">

<g transform="translate(0.000000,1484.000000) scale(0.100000,-0.100000)"
fill="#000000" stroke="none">
<path d="M5980 13183 c-49 -25 -80 -76 -80 -130 0 -46 10 -60 80 -115 l35 -27
-42 -36 c-38 -33 -43 -41 -43 -79 0 -33 7 -52 30 -81 16 -21 35 -56 41 -79 5
-22 11 -45 13 -51 3 -12 -26 -101 -46 -139 -7 -14 -34 -36 -58 -48 -25 -13
-50 -34 -57 -47 -8 -16 -49 -44 -120 -80 -78 -40 -114 -65 -130 -89 -88 -132
-151 -506 -139 -823 12 -307 72 -512 180 -606 22 -19 30 -30 18 -23 -21 10
-36 6 -120 -35 -257 -123 -423 -228 -727 -457 -269 -203 -347 -270 -591 -513
-356 -355 -557 -593 -714 -846 -137 -220 -117 -207 71 46 269 362 632 763 932
1028 199 176 319 268 529 407 203 135 342 215 518 299 l125 59 61 -16 c52 -13
68 -14 104 -3 35 10 45 19 62 58 11 25 21 53 22 61 4 23 19 25 89 13 34 -6
141 -15 237 -21 219 -13 233 -15 269 -45 23 -20 31 -38 40 -93 16 -89 62 -254
122 -430 27 -78 49 -146 49 -151 0 -5 -13 -25 -30 -46 -35 -44 -49 -101 -29
-120 13 -12 404 -125 435 -125 10 0 14 12 14 41 0 52 -26 78 -169 172 -98 65
-101 68 -101 104 0 20 6 44 14 52 12 13 13 50 5 218 -10 230 -30 379 -65 472
-13 35 -24 66 -24 70 0 4 39 17 86 31 83 23 90 23 197 11 278 -32 381 -40 513
-41 l141 0 17 44 17 43 65 7 c63 6 66 6 110 -28 53 -41 109 -56 129 -35 16 17
205 348 205 359 0 9 -36 20 -71 20 -32 0 -98 -42 -191 -122 -40 -35 -80 -69
-89 -75 -12 -10 -39 -8 -130 7 -325 56 -460 72 -641 77 -104 3 -188 8 -188 12
0 3 74 80 165 171 91 91 165 168 165 172 0 29 -52 -15 -211 -176 l-181 -185
-67 -12 c-65 -11 -69 -11 -107 14 -21 14 -61 33 -89 43 -27 9 -92 43 -143 77
-88 56 -93 61 -87 88 6 27 -15 61 -44 70 -7 3 -15 52 -21 129 -9 122 -30 260
-50 330 -5 19 -10 43 -10 53 0 17 1 17 30 1 16 -10 33 -15 37 -11 11 12 -51
129 -112 211 -30 41 -55 82 -55 91 0 26 19 55 37 55 29 0 108 68 148 129 22
33 49 61 59 63 10 2 28 16 40 31 l21 28 -23 39 c-15 27 -22 55 -22 91 0 122
-94 209 -224 209 -32 0 -37 3 -33 18 30 91 31 100 12 142 -10 23 -32 51 -48
62 -41 30 -121 35 -167 11z m430 -480 c0 -13 -6 -23 -14 -23 -7 0 -19 -7 -26
-15 -19 -22 -35 -18 -50 13 -19 38 -20 37 25 70 l40 29 12 -26 c7 -14 12 -36
13 -48z m-280 -15 c21 -14 37 -36 42 -55 15 -59 81 -82 129 -44 24 19 25 19
58 -11 l33 -29 -27 -40 c-72 -110 -144 -149 -207 -112 -67 39 -104 126 -95
229 7 92 14 98 67 62z m157 -6 c6 -4 14 -19 18 -33 8 -33 -16 -59 -54 -59 -29
0 -43 11 -54 43 -13 36 53 72 90 49z m161 -24 c20 -20 15 -76 -7 -88 -27 -14
-69 3 -81 32 -16 41 57 87 88 56z m-353 -241 c14 -15 36 -34 48 -42 22 -14 22
-18 13 -89 -8 -66 -7 -82 12 -139 37 -109 29 -131 -51 -138 l-39 -4 -37 90
c-38 93 -106 221 -122 231 -18 11 -8 33 25 54 27 16 40 36 62 92 l27 71 18
-49 c10 -27 30 -61 44 -77z m-185 -41 c0 -2 -7 -7 -16 -10 -8 -3 -12 -2 -9 4
6 10 25 14 25 6z m14 -105 c25 -39 58 -94 72 -125 l27 -54 -29 -56 c-16 -30
-33 -51 -37 -47 -5 5 -26 59 -47 120 -21 62 -41 115 -44 118 -14 14 -5 113 10
113 1 0 23 -31 48 -69z m-35 -181 c22 -63 49 -122 60 -133 20 -20 20 -20 43
29 33 70 49 64 70 -28 10 -43 28 -99 41 -125 20 -40 25 -70 31 -173 11 -201
-29 -372 -125 -546 -36 -66 -77 -181 -109 -304 -20 -78 -33 -90 -96 -90 -68 0
-111 17 -156 64 -79 81 -125 221 -153 464 -19 158 -17 295 8 508 22 186 74
360 125 421 16 19 64 51 117 76 l90 44 7 -47 c4 -26 25 -98 47 -160z m353 90
c89 -119 116 -186 54 -134 -18 16 -47 37 -64 46 -24 12 -34 29 -46 69 -17 56
-22 119 -8 104 5 -6 33 -44 64 -85z m2 -128 c17 -28 77 -356 82 -454 6 -104 9
-115 28 -124 39 -17 30 -46 -33 -108 -54 -54 -61 -58 -87 -49 -48 16 -57 50
-67 259 l-9 190 28 55 c22 43 28 66 26 114 -2 98 12 149 32 117z m-54 -101 c0
-56 -22 -131 -38 -131 -22 0 -43 31 -57 85 -8 32 -15 64 -15 70 0 9 38 22 103
34 4 0 7 -25 7 -58z m-30 -587 c0 -14 -4 -22 -10 -19 -5 3 -10 17 -10 31 0 14
4 22 10 19 6 -3 10 -17 10 -31z m290 -20 c73 -52 142 -90 197 -108 28 -9 57
-24 64 -33 12 -14 8 -15 -41 -8 -30 4 -70 13 -88 21 -18 7 -83 27 -145 44 -61
17 -118 33 -126 36 -10 3 -2 17 29 49 24 24 48 41 54 38 6 -4 31 -21 56 -39z
m-19 -108 c83 -17 175 -59 189 -87 18 -32 -11 -33 -117 -6 -73 19 -139 27
-256 32 -87 4 -160 11 -162 16 -3 4 6 37 20 72 l26 65 115 -39 c63 -21 146
-45 185 -53z m1795 76 c18 -11 -167 -326 -194 -330 -25 -4 -70 18 -96 47 -17
19 -18 26 -7 60 13 44 95 125 195 192 58 39 80 46 102 31z m-896 -112 c154
-22 292 -44 378 -61 62 -12 65 -23 28 -120 l-24 -64 -159 2 c-188 1 -398 18
-508 39 -79 15 -81 15 -159 -10 -99 -33 -118 -33 -169 3 -53 36 -111 65 -182
92 -31 11 -54 23 -51 26 3 4 52 1 108 -5 211 -23 207 -23 233 1 113 109 100
102 183 108 140 10 176 9 322 -11z m-473 -16 c-3 -3 -12 -4 -19 -1 -8 3 -5 6
6 6 11 1 17 -2 13 -5z m-582 -56 c127 -14 309 -80 418 -150 27 -17 58 -48 71
-72 51 -89 82 -296 88 -580 l3 -138 -49 -19 c-29 -12 -53 -16 -58 -11 -33 33
-124 350 -153 532 -10 62 -26 84 -86 114 -47 23 -65 26 -155 26 -94 0 -357 24
-395 36 -15 4 -15 10 3 72 19 64 68 172 91 200 10 13 36 12 222 -10z m1594
-14 c55 -11 30 -62 -36 -71 -47 -6 -55 2 -47 46 7 33 20 37 83 25z m-1039
-993 c0 -34 -12 -45 -40 -36 -27 9 -25 39 3 53 33 16 37 15 37 -17z m121 -132
c57 -39 114 -81 127 -92 21 -19 31 -67 14 -67 -12 0 -374 100 -383 106 -12 7
-11 41 2 67 24 46 41 57 89 57 42 0 58 -8 151 -71z"/>
<path d="M6320 12554 c0 -29 -3 -35 -16 -30 -8 3 -12 2 -9 -4 3 -6 13 -10 21
-10 10 0 14 12 14 40 0 22 -2 40 -5 40 -3 0 -5 -16 -5 -36z"/>
<path d="M6180 12471 c0 -9 30 -24 36 -18 2 1 -6 8 -16 15 -11 7 -20 8 -20 3z"/>
<path d="M7650 10921 l-85 -6 80 -13 c94 -15 231 -54 370 -107 138 -52 492
-215 589 -271 191 -110 407 -264 546 -389 41 -37 76 -62 78 -56 6 18 -11 38
-103 121 -289 262 -670 494 -1000 610 -60 21 -153 54 -205 73 -110 40 -152 46
-270 38z"/>
<path d="M6730 9455 c0 -188 1 -195 20 -195 18 0 20 7 20 85 l0 85 100 0 100
0 0 -85 c0 -84 0 -85 25 -85 l25 0 0 195 0 195 -25 0 c-25 0 -25 -1 -25 -85
l0 -85 -100 0 -100 0 0 85 c0 78 -2 85 -20 85 -19 0 -20 -7 -20 -195z"/>
<path d="M7112 9638 c-16 -16 -15 -33 4 -48 22 -19 54 12 38 37 -14 22 -27 26
-42 11z"/>
<path d="M7110 9400 c0 -133 1 -140 20 -140 19 0 20 7 20 140 0 133 -1 140
-20 140 -19 0 -20 -7 -20 -140z"/>
<path d="M7233 9304 c-3 -9 -1 -25 5 -34 7 -12 8 -29 2 -50 -8 -26 -6 -31 7
-28 23 4 51 84 37 106 -15 23 -43 27 -51 6z"/>
<path d="M5185 8995 c-49 -17 -90 -62 -104 -112 -6 -21 -11 -97 -11 -170 l0
-132 -42 -3 -43 -3 -3 -47 -3 -48 45 0 46 0 0 -200 0 -200 55 0 55 0 0 200 0
200 75 0 75 0 0 50 0 50 -75 0 -75 0 0 141 0 141 31 30 c27 27 35 30 73 25 39
-6 44 -4 59 22 25 42 22 47 -27 60 -57 14 -82 13 -131 -4z"/>
<path d="M6877 8943 c-4 -3 -7 -28 -7 -55 l0 -48 115 0 115 0 0 -380 0 -380
55 0 55 0 2 378 3 377 118 3 118 3 -3 52 -3 52 -281 3 c-154 1 -283 -1 -287
-5z"/>
<path d="M10497 8930 c-163 -58 -262 -179 -289 -352 -39 -257 109 -460 364
-499 65 -11 89 -10 162 4 48 10 111 28 141 42 l55 24 0 175 0 176 -140 0 -140
0 0 -50 0 -49 83 -3 82 -3 3 -88 3 -88 -33 -13 c-127 -52 -309 -11 -394 88
-54 63 -76 135 -72 236 4 98 26 154 85 215 87 90 241 119 380 73 l72 -24 15
41 c9 22 16 46 16 52 0 6 -26 22 -57 34 -86 33 -256 37 -336 9z"/>
<path d="M400 8510 l0 -430 60 0 60 0 0 430 0 430 -60 0 -60 0 0 -430z"/>
<path d="M754 8932 c-6 -4 -14 -23 -18 -42 -3 -20 -15 -52 -25 -71 l-20 -36
27 -13 c25 -11 29 -9 55 21 28 34 47 85 47 127 0 17 -6 22 -27 22 -16 0 -33
-4 -39 -8z"/>
<path d="M2430 8553 c0 -355 -2 -391 -19 -428 -23 -52 -71 -92 -127 -106 l-44
-11 0 -53 0 -52 51 8 c68 11 147 56 186 108 60 78 63 103 63 533 l0 388 -55 0
-55 0 0 -387z"/>
<path d="M4752 8810 c-62 -25 -45 -110 23 -110 41 0 65 22 65 60 0 22 -7 33
-30 45 -16 8 -30 15 -32 14 -2 0 -13 -4 -26 -9z"/>
<path d="M12820 8795 c-7 -8 -12 -26 -12 -40 0 -36 20 -55 58 -55 38 0 64 22
64 55 0 13 -7 31 -16 39 -20 20 -78 21 -94 1z"/>
<path d="M5639 8590 c-65 -11 -121 -42 -163 -92 -105 -122 -73 -315 64 -392
49 -28 64 -31 135 -31 62 0 92 6 132 24 l53 23 -18 30 c-28 47 -35 50 -83 28
-55 -25 -92 -25 -146 -1 -34 16 -63 45 -63 64 0 2 87 35 194 72 l194 67 -15
43 c-39 117 -157 185 -284 165z m138 -124 c18 -19 33 -39 33 -44 0 -4 -60 -29
-132 -56 -73 -27 -139 -51 -145 -53 -9 -4 -13 6 -13 30 0 102 74 171 174 163
42 -3 55 -9 83 -40z"/>
<path d="M7659 8590 c-165 -28 -257 -185 -207 -354 19 -63 92 -131 164 -152
179 -52 346 52 361 225 10 112 -41 206 -137 253 -63 30 -116 38 -181 28z m90
-90 c65 -18 121 -96 121 -167 0 -48 -36 -120 -72 -147 -16 -11 -49 -21 -80
-24 -62 -4 -106 19 -146 78 -20 30 -23 45 -20 100 4 79 31 123 92 151 47 21
59 23 105 9z"/>
<path d="M8851 8589 c-134 -25 -212 -141 -198 -296 10 -107 61 -174 158 -208
85 -30 187 -9 252 52 l27 27 0 -42 0 -42 55 0 55 0 0 245 0 245 -49 0 c-48 0
-49 0 -56 -36 -6 -36 -7 -36 -21 -15 -22 30 -93 68 -139 73 -22 3 -60 1 -84
-3z m164 -108 c51 -30 75 -76 75 -145 0 -76 -23 -123 -76 -153 -114 -66 -254
20 -254 154 0 133 139 212 255 144z"/>
<path d="M1162 8569 c-24 -12 -53 -35 -64 -50 -26 -34 -38 -29 -38 17 l0 34
-50 0 -50 0 0 -245 0 -245 55 0 55 0 0 143 c0 131 2 148 23 188 44 84 128 113
184 65 l28 -24 3 -186 4 -186 49 0 49 0 0 128 c0 155 14 205 71 257 29 26 48
35 73 35 87 0 96 -22 96 -245 l0 -175 50 0 50 0 0 208 c0 188 -2 210 -20 239
-25 42 -68 63 -130 63 -64 0 -109 -19 -151 -63 l-33 -35 -16 32 c-35 65 -152
87 -238 45z"/>
<path d="M2885 8566 c-68 -31 -122 -90 -140 -150 -40 -133 10 -263 122 -317
67 -33 177 -33 250 0 52 23 52 23 38 50 -29 54 -28 53 -76 32 -73 -34 -138
-25 -191 27 -16 14 -28 29 -28 33 0 3 88 37 195 74 182 63 195 69 189 89 -25
84 -86 155 -150 174 -67 20 -152 15 -209 -12z m175 -71 c26 -14 77 -72 69 -79
-7 -6 -282 -106 -292 -106 -18 0 2 93 29 133 41 62 129 86 194 52z"/>
<path d="M3589 8567 c-24 -13 -54 -38 -65 -55 l-22 -32 -7 45 -6 45 -51 0 -51
0 6 -167 c4 -91 7 -201 7 -245 l0 -78 49 0 49 0 4 148 c2 125 6 153 24 187 27
51 76 85 125 85 91 0 99 -21 99 -245 l0 -175 55 0 55 0 0 203 c0 226 -5 246
-72 287 -48 29 -141 27 -199 -3z"/>
<path d="M4265 8574 c-16 -9 -47 -32 -67 -52 l-38 -36 0 42 0 42 -50 0 -50 0
0 -245 0 -245 55 0 55 0 0 145 c0 161 7 191 58 239 35 33 105 46 141 26 42
-22 51 -66 51 -245 l0 -165 50 0 50 0 0 206 c0 224 -3 238 -58 279 -37 27
-154 32 -197 9z"/>
<path d="M6305 8571 c-23 -10 -60 -40 -83 -66 l-42 -48 0 57 0 56 -50 0 -50 0
0 -245 0 -245 54 0 55 0 3 148 c3 146 3 149 32 186 29 39 94 75 134 76 20 0
22 5 22 50 0 58 -9 61 -75 31z"/>
<path d="M9635 8579 c-53 -29 -96 -64 -115 -93 l-20 -31 0 35 c-1 70 -8 80
-56 80 l-44 0 0 -245 0 -245 50 0 50 0 0 108 c1 127 11 185 37 221 29 38 81
70 125 77 l38 7 0 48 c0 44 -2 49 -22 49 -13 0 -32 -6 -43 -11z"/>
<path d="M11221 8564 c-93 -47 -139 -142 -129 -268 6 -71 34 -133 78 -169 34
-29 116 -57 166 -57 46 0 113 26 157 61 l37 30 0 -41 0 -40 55 0 55 0 0 245 0
245 -50 0 c-48 0 -49 -1 -56 -35 l-6 -35 -40 35 c-50 46 -75 55 -152 55 -47 0
-75 -6 -115 -26z m219 -76 c64 -33 90 -76 90 -152 0 -111 -61 -176 -166 -176
-41 0 -59 6 -92 30 -53 38 -73 79 -73 145 0 80 30 128 101 159 49 21 89 20
140 -6z"/>
<path d="M12065 8571 c-52 -23 -102 -66 -111 -94 -7 -22 -8 -22 -15 3 -4 14
-7 40 -8 58 -1 31 -2 32 -46 32 l-45 0 0 -245 0 -245 49 0 50 0 3 143 c3 139
4 145 32 185 29 42 94 82 134 82 17 0 22 6 22 28 0 15 3 37 6 50 8 28 -14 29
-71 3z"/>
<path d="M12407 8576 c-156 -43 -227 -218 -154 -375 34 -72 140 -131 237 -131
44 0 127 24 154 45 19 15 19 16 -8 44 -27 29 -29 29 -64 14 -84 -35 -196 6
-228 83 -63 150 85 296 226 224 l43 -22 23 29 c13 15 23 33 24 39 0 18 -91 53
-151 59 -31 3 -74 -1 -102 -9z"/>
<path d="M13215 8566 c-60 -28 -87 -56 -114 -116 -24 -52 -28 -159 -10 -221
26 -84 103 -143 202 -155 66 -8 115 6 180 52 l47 34 0 -40 0 -40 50 0 50 0 0
246 0 245 -47 -3 c-46 -3 -48 -4 -53 -36 l-5 -34 -25 27 c-61 67 -182 85 -275
41z m234 -89 c53 -35 74 -85 69 -158 -7 -98 -70 -159 -163 -159 -151 0 -226
178 -124 295 53 60 146 70 218 22z"/>
<path d="M4720 8325 l0 -245 55 0 55 0 0 245 0 245 -55 0 -55 0 0 -245z"/>
<path d="M8115 8448 c36 -68 96 -180 133 -250 37 -70 69 -128 72 -128 4 0 248
463 258 491 2 5 -23 9 -55 9 l-59 0 -69 -157 -69 -158 -75 158 -75 157 -63 0
-64 0 66 -122z"/>
<path d="M12810 8325 l0 -245 55 0 55 0 0 245 0 245 -55 0 -55 0 0 -245z"/>
<path d="M6770 7438 l0 -81 -23 21 c-36 34 -121 31 -159 -5 -26 -25 -28 -32
-28 -112 0 -79 2 -87 27 -113 22 -23 35 -28 77 -28 41 0 55 5 78 27 l28 27 0
-27 c0 -20 5 -27 20 -27 19 0 20 7 20 200 0 193 -1 200 -20 200 -18 0 -20 -7
-20 -82z m-30 -100 c26 -19 30 -28 30 -72 0 -67 -34 -106 -95 -106 -22 0 -46
5 -53 12 -7 7 -12 42 -12 88 0 46 5 81 12 88 20 20 86 14 118 -10z"/>
<path d="M7780 7320 l0 -200 25 0 25 0 0 200 0 200 -25 0 -25 0 0 -200z"/>
<path d="M2500 7352 c0 -186 -3 -192 -87 -192 -55 0 -83 20 -83 58 0 15 -6 22
-20 22 -33 0 -26 -50 13 -88 30 -29 38 -32 98 -32 58 0 68 3 92 28 l27 28 0
167 c0 160 -1 167 -20 167 -19 0 -20 -7 -20 -158z"/>
<path d="M4070 7315 l0 -195 113 0 113 0 32 33 32 33 0 134 c0 132 0 134 -27
162 -26 28 -28 28 -145 28 l-118 0 0 -195z m232 138 c15 -14 18 -32 18 -131 0
-105 -2 -118 -22 -139 -19 -20 -31 -23 -105 -23 l-83 0 0 155 0 155 87 0 c66
0 91 -4 105 -17z"/>
<path d="M8560 7495 c-18 -21 -5 -45 25 -45 20 0 25 5 25 24 0 13 -7 27 -16
30 -21 8 -20 8 -34 -9z"/>
<path d="M9480 7495 c-17 -20 -5 -45 20 -45 11 0 23 7 26 15 6 15 -11 45 -26
45 -4 0 -13 -7 -20 -15z"/>
<path d="M10070 7347 l0 -163 33 -32 c31 -31 37 -32 113 -32 77 0 81 1 112 33
l32 33 0 162 0 162 -25 0 -25 0 0 -158 c0 -191 -1 -192 -102 -192 -97 0 -98 2
-98 193 0 150 -1 157 -20 157 -19 0 -20 -7 -20 -163z"/>
<path d="M10450 7315 c0 -188 1 -195 20 -195 19 0 20 7 20 195 0 188 -1 195
-20 195 -19 0 -20 -7 -20 -195z"/>
<path d="M10671 7358 c-46 -84 -95 -173 -109 -196 l-25 -44 24 4 c20 2 42 36
126 188 56 102 103 188 103 193 0 4 -8 7 -18 7 -12 0 -42 -46 -101 -152z"/>
<path d="M10840 7347 l0 -163 33 -32 c32 -31 36 -32 118 -32 80 0 87 2 112 28
l27 28 0 167 c0 160 -1 167 -20 167 -19 0 -20 -7 -20 -158 0 -191 -1 -192
-102 -192 -97 0 -98 2 -98 193 l0 157 -25 0 -25 0 0 -163z"/>
<path d="M11196 7498 c4 -7 32 -48 62 -91 31 -44 52 -84 48 -92 -3 -8 -33 -55
-66 -105 -57 -85 -59 -90 -37 -90 19 0 36 17 77 80 29 44 55 80 59 80 3 0 30
-36 59 -80 36 -56 58 -80 72 -80 11 0 20 2 20 5 0 3 -27 46 -60 95 -33 49 -60
94 -60 100 0 6 27 51 60 100 57 85 59 90 36 90 -18 0 -34 -16 -72 -75 -27 -41
-51 -75 -54 -75 -3 1 -27 34 -55 75 -38 58 -55 75 -73 75 -16 0 -21 -4 -16
-12z"/>
<path d="M3264 7485 c-4 -9 -2 -21 4 -27 16 -16 47 -5 47 17 0 26 -42 34 -51
10z"/>
<path d="M5040 7475 c0 -23 4 -26 28 -23 19 2 27 9 27 23 0 14 -8 21 -27 23
-24 3 -28 0 -28 -23z"/>
<path d="M2620 7287 c0 -111 1 -114 28 -140 38 -37 99 -38 132 -2 13 14 27 25
32 25 4 0 8 -11 8 -25 0 -18 5 -25 20 -25 19 0 20 7 20 140 0 133 -1 140 -20
140 -18 0 -20 -7 -20 -85 0 -80 -2 -86 -31 -120 -25 -28 -38 -35 -68 -35 -56
0 -61 11 -61 132 0 101 -1 108 -20 108 -19 0 -20 -7 -20 -113z"/>
<path d="M2940 7260 c0 -133 1 -140 20 -140 18 0 20 7 20 85 0 80 2 86 31 120
25 28 38 35 68 35 56 0 61 -11 61 -132 0 -101 1 -108 20 -108 19 0 20 7 20
113 0 111 -1 114 -28 140 -41 39 -95 37 -139 -5 l-33 -32 0 32 c0 25 -4 32
-20 32 -19 0 -20 -7 -20 -140z"/>
<path d="M3270 7260 c0 -133 1 -140 20 -140 19 0 20 7 20 140 0 133 -1 140
-20 140 -19 0 -20 -7 -20 -140z"/>
<path d="M3417 7372 c-25 -26 -27 -34 -27 -113 0 -80 2 -87 28 -112 25 -24 36
-27 97 -27 61 0 72 3 97 27 26 25 28 32 28 113 0 81 -2 88 -28 113 -25 24 -36
27 -98 27 -64 0 -73 -3 -97 -28z m173 -31 c5 -11 10 -47 10 -81 0 -90 -8 -100
-83 -100 -36 0 -68 5 -75 12 -16 16 -16 160 0 176 7 7 39 12 75 12 51 0 64 -3
73 -19z"/>
<path d="M3720 7260 c0 -133 1 -140 20 -140 19 0 20 7 20 93 0 89 1 94 28 120
19 18 39 27 60 27 25 0 32 4 32 20 0 29 -65 28 -97 -2 l-23 -21 0 21 c0 15 -6
22 -20 22 -19 0 -20 -7 -20 -140z"/>
<path d="M4457 7372 c-25 -26 -27 -34 -27 -113 0 -80 2 -87 28 -112 25 -24 36
-27 97 -27 61 0 72 3 97 27 15 15 28 35 28 45 0 26 -33 23 -45 -4 -8 -20 -19
-23 -68 -26 -69 -4 -87 8 -87 54 l0 34 100 0 100 0 0 48 c0 40 -5 53 -28 75
-25 24 -36 27 -98 27 -64 0 -73 -3 -97 -28z m173 -26 c6 -8 10 -25 8 -38 -3
-21 -8 -23 -80 -26 l-78 -3 0 29 c0 15 5 33 12 40 17 17 123 15 138 -2z"/>
<path d="M4762 7377 c-28 -30 -28 -76 -1 -111 18 -23 27 -26 84 -26 69 0 89
-13 83 -52 -3 -21 -9 -23 -65 -26 -54 -3 -64 0 -75 18 -16 25 -48 27 -48 2 0
-10 10 -28 23 -40 19 -18 35 -22 93 -22 61 0 74 3 92 23 30 32 29 87 -1 115
-17 16 -38 22 -86 24 -48 2 -67 7 -75 21 -20 32 4 52 68 55 51 3 58 1 63 -17
3 -14 14 -21 29 -21 32 0 30 20 -4 53 -25 24 -36 27 -93 27 -56 0 -69 -4 -87
-23z"/>
<path d="M5050 7260 c0 -133 1 -140 20 -140 19 0 20 7 20 140 0 133 -1 140
-20 140 -19 0 -20 -7 -20 -140z"/>
<path d="M5197 7372 c-25 -26 -27 -34 -27 -113 0 -80 2 -87 28 -112 37 -35
110 -38 150 -6 l27 21 3 -47 c4 -63 -8 -75 -79 -75 -48 0 -60 4 -69 20 -15 28
-40 26 -40 -3 0 -42 29 -57 112 -57 65 0 77 3 96 23 21 22 22 32 22 200 0 170
-1 177 -20 177 -13 0 -20 -7 -20 -20 0 -11 -4 -20 -8 -20 -5 0 -17 9 -27 20
-14 15 -31 20 -70 20 -43 0 -55 -4 -78 -28z m150 -44 c44 -42 46 -98 6 -140
-22 -23 -35 -28 -75 -28 -58 0 -68 14 -68 101 0 75 16 99 69 99 26 0 44 -8 68
-32z"/>
<path d="M5500 7260 c0 -133 1 -140 20 -140 18 0 20 7 20 83 0 83 0 83 38 120
27 26 47 37 68 37 48 0 54 -14 54 -132 0 -101 1 -108 20 -108 19 0 20 7 20
113 0 111 -1 114 -28 140 -41 39 -95 37 -139 -5 l-33 -32 0 32 c0 25 -4 32
-20 32 -19 0 -20 -7 -20 -140z"/>
<path d="M5837 7372 c-25 -26 -27 -34 -27 -113 0 -80 2 -87 28 -112 25 -24 36
-27 97 -27 61 0 72 3 97 27 15 15 28 35 28 45 0 26 -33 23 -45 -4 -8 -20 -19
-23 -68 -26 -69 -4 -87 8 -87 54 l0 34 100 0 100 0 0 48 c0 40 -5 53 -28 75
-25 24 -36 27 -98 27 -64 0 -73 -3 -97 -28z m173 -26 c6 -8 10 -25 8 -38 -3
-21 -8 -23 -80 -26 l-78 -3 0 29 c0 15 5 33 12 40 17 17 123 15 138 -2z"/>
<path d="M6130 7260 l0 -140 25 0 c25 0 25 0 25 93 0 89 1 94 28 120 19 18 39
27 60 27 25 0 32 4 32 20 0 29 -65 28 -97 -2 l-23 -21 0 21 c0 17 -6 22 -25
22 l-25 0 0 -140z"/>
<path d="M6912 7377 c-19 -21 -22 -35 -22 -118 0 -87 2 -97 23 -117 20 -19 35
-22 98 -22 66 0 78 3 97 23 27 29 29 67 4 67 -9 0 -22 -10 -27 -22 -8 -20 -19
-23 -68 -26 -69 -4 -87 8 -87 54 l0 34 100 0 100 0 0 53 c0 79 -23 97 -121 97
-66 0 -78 -3 -97 -23z m166 -29 c7 -7 12 -25 12 -40 l0 -28 -80 0 -80 0 0 28
c0 41 17 52 80 52 31 0 61 -5 68 -12z"/>
<path d="M7175 7380 c4 -11 26 -74 50 -138 38 -104 45 -117 68 -120 22 -3 27
4 50 65 52 136 77 205 77 210 0 2 -10 3 -21 1 -17 -2 -29 -24 -59 -111 -21
-60 -41 -111 -43 -113 -3 -3 -23 46 -45 108 -33 94 -43 114 -62 116 -18 3 -21
0 -15 -18z"/>
<path d="M7487 7372 c-25 -26 -27 -34 -27 -113 0 -80 2 -87 28 -112 25 -24 36
-27 98 -27 65 0 73 2 98 29 17 18 26 36 23 45 -9 24 -33 19 -51 -9 -14 -22
-24 -25 -75 -25 -66 0 -84 13 -79 57 l3 28 103 3 102 3 0 47 c0 40 -5 53 -28
75 -25 24 -36 27 -98 27 -64 0 -73 -3 -97 -28z m161 -24 c7 -7 12 -25 12 -40
l0 -28 -80 0 -80 0 0 28 c0 41 17 52 80 52 31 0 61 -5 68 -12z"/>
<path d="M7932 7377 c-19 -21 -22 -35 -22 -118 0 -87 2 -97 23 -117 20 -19 35
-22 98 -22 66 0 78 3 97 23 19 21 22 35 22 118 0 87 -2 97 -23 117 -20 19 -35
22 -98 22 -66 0 -78 -3 -97 -23z m166 -29 c7 -7 12 -42 12 -88 0 -46 -5 -81
-12 -88 -7 -7 -37 -12 -68 -12 -31 0 -61 5 -68 12 -7 7 -12 42 -12 88 0 46 5
81 12 88 7 7 37 12 68 12 31 0 61 -5 68 -12z"/>
<path d="M8230 7200 c0 -193 1 -200 20 -200 18 0 20 7 20 82 l0 81 23 -21 c36
-34 121 -31 159 5 26 25 28 32 28 112 0 79 -2 87 -27 113 -22 23 -35 28 -77
28 -41 0 -55 -5 -78 -27 l-28 -27 0 27 c0 20 -5 27 -20 27 -19 0 -20 -7 -20
-200z m192 143 c14 -12 18 -31 18 -80 0 -89 -9 -103 -68 -103 -63 0 -102 36
-102 95 0 79 99 136 152 88z"/>
<path d="M8560 7260 c0 -133 1 -140 20 -140 19 0 20 7 20 140 0 133 -1 140
-20 140 -19 0 -20 -7 -20 -140z"/>
<path d="M8690 7260 l0 -140 25 0 c25 0 25 1 25 88 0 86 1 89 33 120 35 34 82
43 105 20 8 -8 12 -49 12 -120 0 -101 1 -108 20 -108 19 0 20 7 20 113 0 111
-1 114 -28 140 -38 37 -99 38 -132 2 -13 -14 -27 -25 -32 -25 -4 0 -8 11 -8
25 0 18 -5 25 -20 25 -19 0 -20 -7 -20 -140z"/>
<path d="M9032 7377 c-19 -21 -22 -35 -22 -118 0 -87 2 -97 23 -117 18 -17 36
-22 77 -22 41 0 59 5 77 22 l23 21 0 -49 c0 -28 -5 -55 -12 -62 -7 -7 -38 -12
-71 -12 -50 0 -60 3 -64 20 -8 29 -43 26 -43 -3 0 -42 29 -57 112 -57 65 0 77
3 96 23 21 22 22 32 22 200 0 170 -1 177 -20 177 -14 0 -20 -7 -20 -22 l0 -21
-23 21 c-34 32 -125 31 -155 -1z m151 -45 c21 -22 27 -38 27 -72 0 -61 -37
-100 -95 -100 -22 0 -46 5 -53 12 -7 7 -12 42 -12 88 0 46 5 81 12 88 7 7 31
12 53 12 32 0 47 -6 68 -28z"/>
<path d="M9480 7260 c0 -133 1 -140 20 -140 19 0 20 7 20 140 0 133 -1 140
-20 140 -19 0 -20 -7 -20 -140z"/>
<path d="M9610 7260 c0 -133 1 -140 20 -140 18 0 20 7 20 88 0 86 1 89 33 120
35 34 82 43 105 20 8 -8 12 -49 12 -120 l0 -108 25 0 25 0 0 113 c0 111 -1
114 -28 140 -22 21 -38 27 -72 27 -34 0 -50 -6 -72 -27 l-28 -27 0 27 c0 20
-5 27 -20 27 -19 0 -20 -7 -20 -140z"/>
<path d="M6311 7166 c-10 -11 -10 -20 -1 -37 7 -12 9 -34 6 -50 -7 -38 9 -37
29 2 30 58 2 128 -34 85z"/>
<path d="M11544 7166 c-9 -24 4 -48 23 -44 12 2 18 12 18 28 0 29 -32 41 -41
16z"/>
<path d="M8300 5001 c-138 -144 -256 -216 -479 -293 -63 -22 -145 -57 -181
-79 -75 -44 -280 -205 -280 -220 0 -23 37 -4 94 48 130 121 232 183 384 233
125 41 168 61 282 132 80 50 122 86 201 171 55 59 95 107 87 107 -7 0 -56 -44
-108 -99z"/>
<path d="M5287 4573 c-4 -3 -7 -15 -7 -27 0 -11 -10 -30 -21 -42 -25 -27 -19
-54 11 -54 13 0 28 -13 41 -35 26 -43 49 -46 49 -6 0 15 10 41 22 56 18 23 20
29 8 33 -8 3 -32 22 -52 43 -40 42 -41 43 -51 32z"/>
<path d="M9276 4386 c-7 -34 -27 -58 -59 -69 -24 -9 -17 -31 11 -35 12 -2 33
-17 47 -33 13 -17 29 -27 35 -24 6 4 8 10 5 15 -10 16 15 50 43 62 l27 10 -24
11 c-13 6 -32 30 -42 54 -22 52 -35 54 -43 9z"/>
<path d="M5900 4295 c-6 -17 -19 -38 -28 -48 -15 -17 -13 -20 23 -50 47 -39
59 -40 63 -7 2 14 11 34 20 44 13 14 14 20 4 23 -7 3 -26 19 -42 36 l-29 31
-11 -29z"/>
<path d="M6760 4043 c-41 -7 -113 -21 -160 -29 -87 -16 -309 -95 -460 -166
-87 -40 -210 -115 -210 -128 0 -20 17 -15 63 21 67 50 156 93 236 114 35 9
104 36 152 61 108 54 205 81 330 93 91 9 149 25 149 43 0 10 -3 9 -100 -9z"/>
<path d="M4816 3930 c-270 -34 -577 -147 -689 -255 -51 -48 -86 -111 -110
-195 -9 -30 -33 -77 -52 -105 -76 -106 -83 -218 -22 -365 24 -57 40 -121 51
-194 21 -143 49 -249 97 -371 145 -371 453 -706 817 -889 158 -80 241 -90 469
-61 275 36 454 120 638 301 135 133 301 361 373 514 33 68 36 83 36 160 0 71
-7 109 -43 230 -24 80 -47 157 -51 172 -8 25 -4 29 44 57 64 36 111 88 144
159 20 44 23 65 20 120 -7 112 -62 194 -170 253 -58 32 -69 34 -153 34 -78 0
-97 -4 -147 -28 -161 -79 -222 -236 -147 -385 46 -93 122 -147 239 -171 l55
-11 44 -170 c40 -152 61 -205 61 -152 0 15 -57 243 -75 300 -6 19 -4 22 17 22
22 0 26 -11 76 -193 62 -231 65 -272 21 -322 -49 -56 -273 -156 -404 -181 -29
-5 -36 -3 -41 12 -51 166 -227 294 -403 294 -44 0 -62 5 -75 19 -10 11 -74
169 -143 352 -108 286 -126 342 -127 395 -1 54 3 68 29 106 41 57 109 90 370
180 191 65 217 72 290 72 96 1 133 -16 170 -75 29 -45 51 -58 68 -40 15 16
-31 57 -152 138 -181 120 -400 210 -616 253 -123 25 -390 35 -509 20z m473
-36 c162 -28 312 -79 415 -141 l59 -36 -109 -25 c-133 -29 -446 -138 -571
-198 -51 -24 -94 -44 -97 -44 -3 0 -17 23 -32 51 -69 137 -241 254 -428 291
l-69 14 102 37 c91 33 212 59 326 71 76 8 310 -4 404 -20z m-728 -130 c92 -28
259 -120 259 -144 0 -6 -10 -10 -22 -10 -30 -1 -61 -27 -84 -70 -16 -30 -19
-55 -17 -174 3 -164 -6 -195 -84 -267 -67 -63 -142 -90 -263 -96 -86 -4 -99
-3 -140 19 -98 53 -163 199 -164 368 -1 88 2 100 32 162 41 84 138 177 214
207 67 25 192 28 269 5z m1283 -82 c3 -5 -123 -50 -280 -102 -161 -52 -304
-105 -329 -121 -80 -51 -114 -139 -94 -246 23 -125 296 -834 354 -920 28 -42
109 -113 128 -113 3 0 22 -7 43 -16 l38 -16 -29 -17 c-48 -26 -188 -22 -242 7
-53 28 -104 80 -134 136 l-23 44 27 32 c33 39 34 74 6 166 -36 121 -94 181
-161 172 -26 -4 -32 0 -50 36 -20 38 -58 142 -58 156 0 4 29 15 65 25 85 23
96 39 20 30 -57 -8 -58 -7 -52 16 9 35 -11 109 -40 152 -22 32 -24 40 -12 48
19 12 33 11 64 -3 34 -15 61 -68 70 -136 8 -62 31 -67 28 -6 -4 58 -30 128
-58 154 -23 22 -28 23 -92 12 -37 -6 -71 -8 -75 -4 -15 15 -20 127 -9 169 25
91 81 127 366 228 243 86 381 124 457 125 37 0 69 -4 72 -8z m-980 -113 c34
-27 76 -109 76 -149 0 -17 -7 -54 -17 -82 -14 -45 -15 -63 -3 -162 14 -125 26
-167 99 -346 29 -69 71 -186 95 -261 27 -82 60 -163 85 -205 22 -37 41 -75 41
-85 0 -35 81 -177 135 -237 49 -54 56 -66 50 -91 -15 -68 -78 -90 -153 -52
-71 36 -229 222 -278 326 -13 28 -24 68 -24 91 0 63 -32 176 -99 347 -34 86
-61 169 -61 185 0 16 14 59 31 95 57 122 39 229 -65 392 -31 49 -56 100 -56
114 1 37 34 106 61 125 31 21 51 20 83 -5z m1374 -106 c-10 -2 -26 -2 -35 0
-10 3 -2 5 17 5 19 0 27 -2 18 -5z m-108 -17 l-35 -13 40 -11 c32 -9 49 -8 83
3 42 15 77 12 139 -12 12 -5 14 -3 8 8 -4 8 7 1 24 -16 58 -53 109 -186 94
-246 -7 -30 -32 -59 -51 -59 -21 0 -82 -65 -82 -88 0 -31 -25 -44 -93 -49 -50
-4 -71 -1 -103 15 -23 12 -51 18 -69 15 -42 -6 -94 31 -123 87 -22 41 -23 54
-19 150 7 151 22 175 137 211 63 21 102 24 50 5z m-2111 -145 c19 -96 59 -195
98 -241 50 -58 101 -81 193 -87 154 -11 307 49 374 145 35 51 57 129 49 177
-14 86 44 4 86 -123 34 -100 26 -180 -25 -249 -13 -17 -24 -38 -24 -46 0 -9
30 -98 66 -199 71 -197 104 -312 104 -363 0 -66 -30 -138 -79 -186 -158 -159
-356 -32 -584 377 -80 143 -115 220 -127 281 -10 47 -17 57 -68 98 -144 113
-191 290 -117 440 15 31 30 53 34 48 4 -4 13 -37 20 -72z m989 -229 c12 -21
24 -57 28 -80 5 -35 4 -42 -10 -42 -22 0 -55 74 -56 123 0 47 11 47 38 -1z
m-915 -220 c9 -10 28 -54 43 -97 76 -226 180 -404 329 -564 171 -184 359 -196
467 -30 l31 48 59 -90 c111 -169 204 -249 308 -265 47 -8 47 -9 -3 -93 -40
-67 -146 -175 -197 -201 -50 -25 -122 -25 -178 0 -56 25 -305 195 -396 269
-95 79 -213 203 -263 276 -87 130 -208 385 -237 501 -25 99 -39 234 -25 250
16 19 43 18 62 -4z m1110 -202 c26 -21 79 -142 92 -212 13 -67 -19 -106 -58
-71 -47 42 -116 247 -96 285 13 23 30 23 62 -2z m294 -204 c-3 -17 -9 -40 -13
-51 -7 -20 -7 -20 14 -1 14 12 22 31 22 52 0 24 5 34 20 39 30 10 41 -2 28
-30 -18 -40 5 -97 66 -159 43 -45 64 -58 120 -75 38 -12 79 -21 92 -21 35 0
29 -17 -8 -25 -88 -20 -160 4 -184 60 -18 44 -59 75 -100 75 -28 0 -38 7 -59
38 -31 47 -41 93 -26 121 16 30 34 15 28 -23z m136 -84 c27 -41 116 -109 165
-127 52 -19 16 -18 -40 1 -92 31 -169 124 -167 201 l1 38 9 -40 c5 -22 20 -55
32 -73z m25 96 c7 -7 12 -24 12 -40 0 -50 101 -138 158 -138 21 0 42 -18 42
-36 0 -16 -61 -2 -98 22 -97 63 -142 117 -142 174 0 32 8 38 28 18z m62 -52
c0 -29 38 -64 78 -72 17 -4 36 -12 42 -19 21 -25 -7 -24 -60 2 -55 27 -90 71
-90 112 0 20 2 21 15 11 8 -7 15 -22 15 -34z m65 -26 c22 -23 25 -30 12 -30
-18 0 -57 34 -57 50 0 18 16 11 45 -20z m562 -87 c-8 -15 -40 -59 -71 -98 -31
-38 -56 -75 -56 -81 0 -6 -16 -43 -35 -82 -29 -56 -57 -91 -145 -175 -243
-233 -369 -297 -673 -341 -112 -17 -213 -21 -242 -10 -12 5 -4 13 32 34 69 40
137 103 187 174 56 79 136 228 136 252 0 10 -21 38 -48 60 -26 23 -55 55 -65
72 l-18 31 46 -20 c62 -27 140 -34 217 -20 35 7 180 46 323 87 251 72 382 121
407 152 18 22 21 -2 5 -35z m-737 -23 c20 -20 29 -66 10 -55 -5 3 -10 15 -10
25 0 22 -32 43 -53 34 -8 -3 -18 -1 -22 5 -12 20 54 12 75 -9z m-25 -20 c3 -5
2 -10 -4 -10 -5 0 -13 5 -16 10 -3 6 -2 10 4 10 5 0 13 -4 16 -10z"/>
<path d="M4880 3811 c0 -4 24 -11 54 -15 78 -9 182 -43 253 -82 34 -19 64 -30
68 -25 6 11 -52 48 -128 81 -82 36 -247 64 -247 41z"/>
<path d="M4365 3244 c-36 -19 -45 -31 -45 -66 0 -41 38 -62 96 -53 25 3 54 15
65 26 23 23 25 72 3 93 -20 20 -80 20 -119 0z m89 -30 c27 -10 -1 -34 -40 -34
-39 0 -45 16 -11 30 28 11 32 11 51 4z"/>
<path d="M5552 3608 c-40 -11 -71 -22 -68 -25 4 -4 157 35 165 43 9 8 -27 2
-97 -18z"/>
<path d="M4620 2341 c-73 -38 -76 -99 -8 -141 67 -41 169 -10 198 60 17 41 5
66 -41 84 -52 21 -106 20 -149 -3z m70 -21 c0 -5 -7 -10 -15 -10 -8 0 -15 5
-15 10 0 6 7 10 15 10 8 0 15 -4 15 -10z m70 -10 c-20 -13 -33 -13 -25 0 3 6
14 10 23 10 15 0 15 -2 2 -10z m-110 -19 c0 -5 -9 -11 -20 -14 -20 -5 -26 3
-13 16 9 10 33 8 33 -2z m130 -11 c0 -5 -7 -10 -16 -10 -8 0 -12 5 -9 10 3 6
10 10 16 10 5 0 9 -4 9 -10z m-41 -29 c9 -6 10 -11 2 -15 -13 -8 -31 1 -31 15
0 11 11 11 29 0z m-94 -11 c-3 -5 -13 -10 -21 -10 -8 0 -12 5 -9 10 3 6 13 10
21 10 8 0 12 -4 9 -10z m41 -27 c-10 -10 -19 5 -10 18 6 11 8 11 12 0 2 -7 1
-15 -2 -18z"/>
<path d="M6005 1967 c-91 -127 -220 -242 -357 -318 -70 -38 -34 -38 46 0 78
38 181 124 269 226 72 83 100 128 95 149 -2 7 -25 -18 -53 -57z"/>
<path d="M9460 3772 c-157 -110 -145 -98 -133 -124 35 -74 273 -322 361 -375
46 -28 57 -28 106 -2 38 20 77 22 82 4 2 -5 -26 -34 -62 -64 -35 -30 -64 -60
-64 -66 0 -7 9 -20 20 -30 25 -22 25 -32 2 -44 -14 -7 -35 -3 -83 16 -57 23
-73 25 -149 20 -166 -11 -208 -45 -131 -107 23 -17 41 -37 41 -44 0 -7 -15
-50 -34 -96 -23 -59 -41 -87 -58 -96 -34 -18 -42 -42 -23 -70 20 -30 68 -32
92 -4 15 18 30 20 125 20 l108 0 40 -37 41 -36 36 34 c76 72 104 195 67 289
-22 55 -6 75 30 37 47 -51 103 -48 166 9 40 37 72 42 78 12 2 -11 -12 -27 -37
-44 -24 -16 -41 -35 -41 -46 0 -22 326 -408 345 -408 8 0 227 143 253 165 1 1
-75 89 -169 196 l-170 194 -67 0 c-84 0 -88 11 -28 89 55 70 96 151 103 204 4
32 1 44 -17 62 -19 19 -29 21 -68 15 -60 -9 -161 -51 -235 -98 -67 -43 -77
-45 -77 -14 0 15 11 29 30 40 17 10 30 27 30 38 0 24 -378 429 -399 428 -9 0
-59 -31 -111 -67z m174 -22 c47 -51 56 -82 25 -88 -17 -3 -109 103 -109 126 0
27 40 9 84 -38z m-79 -24 c14 -23 34 -51 45 -61 25 -23 25 -35 1 -35 -44 0
-112 88 -97 125 9 25 24 17 51 -29z m-37 -68 l54 -57 -30 -15 c-27 -14 -31
-14 -44 2 -30 34 -69 112 -63 122 11 18 27 8 83 -52z m-75 -41 c20 -35 37 -67
37 -70 0 -20 -33 -1 -74 43 -44 47 -54 69 -39 83 18 19 42 2 76 -56z m321 -17
c46 -50 56 -70 34 -70 -20 0 -120 98 -113 110 12 20 33 9 79 -40z m-55 -39
c33 -29 51 -52 47 -59 -4 -7 -11 -12 -16 -12 -15 0 -110 92 -110 106 0 25 24
14 79 -35z m-54 -41 c41 -42 46 -51 35 -65 -20 -24 -35 -18 -94 38 -43 41 -53
56 -44 65 23 23 54 12 103 -38z m-91 -37 c56 -47 70 -78 40 -90 -10 -4 -31 10
-61 38 -50 49 -67 75 -58 89 10 17 21 12 79 -37z m351 -32 c26 -28 27 -33 14
-46 -13 -14 -17 -13 -36 5 -38 35 -75 89 -68 100 8 12 45 -13 90 -59z m-120
21 c17 -12 85 -95 85 -104 0 -4 -8 -8 -18 -8 -32 0 -111 88 -97 110 7 12 16
13 30 2z m-21 -83 c25 -28 46 -55 46 -60 0 -17 -39 -30 -59 -20 -22 12 -81 84
-81 99 0 10 27 31 42 32 3 0 27 -23 52 -51z m466 -44 l31 -16 -33 -61 c-39
-73 -156 -200 -232 -252 -64 -45 -63 -45 -160 53 l-69 70 54 50 c72 68 181
143 276 191 l77 39 12 -29 c7 -16 26 -36 44 -45z m40 50 c0 -27 -26 -35 -48
-13 -21 21 -13 38 18 38 25 0 30 -4 30 -25z m-581 -66 c24 -27 40 -53 37 -56
-8 -8 -104 78 -105 95 -2 26 26 10 68 -39z m196 -19 c16 -18 16 -20 2 -20 -9
0 -21 9 -27 20 -6 11 -7 20 -2 20 5 0 17 -9 27 -20z m-215 -246 c95 -30 160
-112 160 -202 0 -53 -35 -134 -73 -171 l-24 -21 -166 184 c-92 101 -167 189
-167 194 0 13 29 22 95 32 59 8 113 4 175 -16z m474 -15 c-4 -6 -11 -6 -20 2
-21 17 -17 31 6 19 11 -6 18 -15 14 -21z m-334 -4 c0 -8 -7 -15 -15 -15 -8 0
-15 7 -15 15 0 8 7 15 15 15 8 0 15 -7 15 -15z m504 -35 c37 -48 42 -81 14
-80 -20 1 -91 98 -84 115 10 27 31 16 70 -35z m-60 -39 c36 -48 44 -71 27 -71
-12 0 -91 95 -91 109 0 26 31 8 64 -38z m-47 -28 c23 -26 43 -52 43 -58 0 -12
-20 -35 -31 -35 -13 0 -90 113 -85 126 9 24 28 15 73 -33z m-59 -45 c34 -43
41 -72 18 -81 -17 -7 -33 6 -74 59 -24 31 -28 44 -20 52 21 21 42 12 76 -30z
m-618 -48 c0 -7 -123 -91 -127 -86 -5 5 35 107 54 135 l16 25 29 -34 c15 -19
28 -37 28 -40z m909 9 c35 -40 41 -53 30 -60 -8 -5 -17 -9 -20 -9 -12 0 -98
103 -93 111 12 20 42 5 83 -42z m-65 -29 c40 -44 46 -70 17 -70 -22 0 -95 85
-86 100 12 19 33 10 69 -30z m-56 -42 c30 -39 38 -56 30 -65 -6 -7 -16 -13
-22 -12 -15 0 -86 95 -86 114 0 32 39 13 78 -37z m-719 -8 l32 -40 -97 0 c-96
0 -97 0 -79 19 15 18 91 61 106 61 3 0 20 -18 38 -40z m665 -34 c39 -47 44
-61 21 -69 -19 -8 -109 97 -101 118 8 22 36 6 80 -49z m283 -7 c43 -46 47 -63
17 -67 -15 -2 -32 11 -58 42 -59 73 -23 95 41 25z m-27 -103 c-16 -16 -105 77
-96 101 7 15 15 10 57 -36 33 -38 46 -58 39 -65z m-1125 79 c0 -30 -39 -27
-43 3 -3 20 0 23 20 20 15 -2 23 -10 23 -23z m1038 -51 c43 -52 45 -60 16 -69
-23 -8 -66 26 -90 71 -11 22 -11 27 1 34 24 16 33 11 73 -36z m-69 -41 c42
-44 45 -63 12 -63 -17 0 -34 13 -55 42 -49 67 -16 83 43 21z"/>
<path d="M9155 3560 c-4 -11 -18 -34 -32 -50 -18 -21 -21 -30 -10 -30 8 0 25
-8 38 -19 24 -18 24 -18 58 15 21 22 28 34 19 34 -19 0 -48 32 -48 53 0 24
-17 21 -25 -3z"/>
<path d="M5407 3446 c-84 -23 -167 -108 -167 -171 0 -18 7 -38 15 -45 18 -15
17 -16 19 36 3 66 60 125 150 155 28 10 52 22 54 28 5 14 -10 13 -71 -3z"/>
<path d="M5497 3226 c-3 -17 -8 -39 -12 -48 -5 -14 -2 -18 13 -18 10 0 31 -10
46 -21 15 -12 28 -20 29 -18 5 8 28 102 25 103 -2 1 -24 8 -49 17 l-47 16 -5
-31z"/>
<path d="M5280 3105 c0 -27 102 -285 113 -285 19 0 -1 76 -49 188 -45 105 -64
133 -64 97z"/>
<path d="M6050 2708 c0 -7 -7 -26 -16 -43 -15 -29 -15 -30 18 -57 18 -15 36
-28 39 -28 3 0 11 17 17 37 10 33 9 38 -13 59 -14 13 -25 28 -25 34 0 5 -4 10
-10 10 -5 0 -10 -6 -10 -12z"/>
<path d="M7077 2631 c-21 -60 -21 -71 -2 -71 8 0 24 -9 35 -20 18 -18 20 -18
20 -2 0 9 7 30 15 46 14 27 14 30 -13 61 -15 19 -29 34 -32 34 -3 1 -13 -21
-23 -48z"/>
<path d="M6276 2419 c-11 -10 -41 -29 -68 -41 -51 -23 -62 -38 -28 -38 43 0
140 60 140 87 0 19 -22 15 -44 -8z"/>
<path d="M6522 2404 c-68 -15 -102 -29 -102 -44 0 -13 -3 -13 72 7 45 12 103
17 203 17 119 0 157 -4 255 -28 142 -34 281 -43 432 -26 105 11 188 33 176 46
-3 3 -72 -2 -153 -11 -215 -22 -315 -20 -416 9 -46 13 -108 29 -137 35 -71 15
-252 12 -330 -5z"/>
<path d="M7721 2405 c-139 -39 -257 -145 -296 -267 -23 -69 -27 -74 -104 -113
-102 -51 -132 -85 -115 -130 16 -42 134 -70 230 -55 l63 10 61 -39 c152 -98
338 -117 475 -48 97 48 148 109 184 218 23 71 40 91 112 132 48 27 129 108
129 129 -1 52 -93 73 -207 47 -49 -12 -49 -11 -115 34 -36 25 -92 55 -125 67
-76 29 -216 36 -292 15z m254 -30 c110 -29 225 -134 225 -206 0 -31 -1 -32
-260 -120 -211 -73 -395 -111 -449 -94 -44 14 -54 159 -17 237 73 151 302 234
501 183z m423 -101 c13 -4 22 -14 22 -26 0 -27 -77 -98 -147 -136 -83 -44
-268 -115 -397 -152 -386 -112 -723 -118 -624 -13 24 26 108 76 146 88 31 9
29 -18 -3 -43 -33 -26 -33 -60 1 -68 42 -11 259 15 353 42 170 48 364 118 454
163 120 61 143 98 58 93 -80 -5 -56 32 30 47 71 11 80 12 107 5z m-118 -74 c0
-12 -40 -34 -47 -26 -9 8 17 36 33 36 8 0 14 -4 14 -10z m-100 -212 c0 -90
-73 -179 -179 -219 -65 -25 -189 -29 -261 -10 -109 30 -188 79 -163 101 4 4
68 19 142 34 124 25 386 103 421 126 30 19 40 11 40 -32z m-740 -29 c0 -5 -9
-9 -20 -9 -22 0 -27 16 -7 23 15 5 27 -1 27 -14z"/>
<path d="M8093 2413 c4 -6 24 -14 44 -18 21 -3 84 -22 141 -42 57 -19 106 -33
108 -30 9 8 -59 45 -126 67 -75 25 -177 39 -167 23z"/>
<path d="M8480 2292 c0 -16 15 -23 94 -43 121 -32 231 -34 405 -9 161 23 189
22 366 -6 50 -8 118 -14 153 -14 63 0 184 23 212 40 30 18 -1 22 -62 6 -79
-20 -182 -20 -313 -1 -128 18 -265 18 -385 0 -128 -20 -237 -18 -345 4 -49 11
-98 22 -107 26 -11 4 -18 3 -18 -3z"/>
<path d="M8520 2051 c0 -6 -14 -26 -31 -46 l-31 -35 26 -31 c14 -17 26 -37 26
-45 0 -22 20 -16 29 9 5 13 22 32 37 42 l27 18 -24 12 c-15 9 -26 25 -29 46
-5 29 -30 55 -30 30z"/>
</g>
</svg>
