<svg width="104" height="110" viewBox="0 0 104 110" fill="none" xmlns="http://www.w3.org/2000/svg">
<circle cx="54" cy="55" r="50" transform="rotate(-180 54 55)" fill="#F8FFFD"/>
<ellipse cx="59.5669" cy="50.2656" rx="42.5" ry="43.5" transform="rotate(-57.2957 59.5669 50.2656)" fill="#2C2819"/>
<path d="M50.769 57.6509C51.3901 57.6509 51.9204 57.4312 52.3599 56.9917C52.7993 56.5522 53.019 56.022 53.019 55.4009V42.8018C53.019 42.6787 52.9751 42.5732 52.8872 42.4854C52.7993 42.3975 52.6938 42.3535 52.5708 42.3535C52.4448 42.3535 52.3394 42.3975 52.2544 42.4854C52.1636 42.5732 52.1182 42.6787 52.1182 42.8018V55.4009C52.1182 55.7729 51.9863 56.0908 51.7227 56.3545C51.459 56.6182 51.1411 56.75 50.769 56.75H47.1699C47.082 56.75 46.9927 56.7427 46.9019 56.728C46.8169 56.7104 46.7334 56.6855 46.6514 56.6533C46.5928 56.6299 46.5356 56.6182 46.48 56.6182C46.4214 56.6182 46.3643 56.6299 46.3086 56.6533C46.1943 56.7002 46.1123 56.7808 46.0625 56.895C46.042 56.9536 46.0317 57.0107 46.0317 57.0664C46.0317 57.125 46.042 57.1821 46.0625 57.2378C46.1123 57.3521 46.1943 57.4341 46.3086 57.4839C46.4434 57.5396 46.5811 57.5806 46.7217 57.6069C46.8682 57.6362 47.0176 57.6509 47.1699 57.6509H50.769ZM47.1699 58.5518C46.959 58.5518 46.751 58.5312 46.5459 58.4902C46.3467 58.4492 46.1519 58.3906 45.9614 58.3145C45.6187 58.1709 45.3755 57.9277 45.2319 57.585C45.1616 57.4121 45.1265 57.2393 45.1265 57.0664C45.1265 56.8936 45.1616 56.7207 45.2319 56.5479C45.3755 56.2051 45.6187 55.9619 45.9614 55.8184C46.1343 55.7451 46.3071 55.7085 46.48 55.7085C46.6528 55.7085 46.8257 55.7451 46.9985 55.8184C47.0513 55.8418 47.1084 55.8535 47.1699 55.8535H50.769C50.895 55.8535 51.0005 55.8081 51.0854 55.7173C51.1763 55.6323 51.2217 55.5269 51.2217 55.4009V42.8018C51.2217 42.4297 51.3535 42.1118 51.6172 41.8481C51.8809 41.5845 52.1987 41.4526 52.5708 41.4526C52.9429 41.4526 53.2607 41.5845 53.5244 41.8481C53.7881 42.1118 53.9199 42.4297 53.9199 42.8018V55.4009C53.9199 56.271 53.6123 57.0137 52.9971 57.6289C52.3818 58.2441 51.6392 58.5518 50.769 58.5518H47.1699ZM59.6416 57.6509C59.7676 57.6509 59.873 57.6069 59.958 57.519C60.0488 57.4312 60.0942 57.3257 60.0942 57.2026V44.6035C60.0942 44.2314 60.2261 43.9136 60.4897 43.6499C60.7534 43.3833 61.0713 43.25 61.4434 43.25H63.2451C63.3682 43.25 63.4736 43.2061 63.5615 43.1182C63.6494 43.0332 63.6934 42.9277 63.6934 42.8018C63.6934 42.6787 63.6494 42.5732 63.5615 42.4854C63.4736 42.3975 63.3682 42.3535 63.2451 42.3535H61.4434C60.8223 42.3535 60.292 42.5732 59.8525 43.0127C59.4131 43.4521 59.1934 43.9824 59.1934 44.6035V57.2026C59.1934 57.3257 59.2373 57.4312 59.3252 57.519C59.4131 57.6069 59.5186 57.6509 59.6416 57.6509ZM56.0425 44.1509C55.6704 44.1509 55.3525 44.019 55.0889 43.7554C54.8252 43.4917 54.6934 43.1738 54.6934 42.8018C54.6934 42.4297 54.8252 42.1118 55.0889 41.8481C55.3525 41.5845 55.6704 41.4526 56.0425 41.4526H58.8989C58.5767 41.7104 58.3027 42.0107 58.0771 42.3535H56.0425C55.9194 42.3535 55.814 42.3975 55.7261 42.4854C55.6382 42.5732 55.5942 42.6787 55.5942 42.8018C55.5942 42.9277 55.6382 43.0332 55.7261 43.1182C55.814 43.2061 55.9194 43.25 56.0425 43.25H57.8442V44.1509H56.0425ZM59.6416 58.5518C59.2695 58.5518 58.9517 58.4199 58.688 58.1562C58.4243 57.8926 58.2925 57.5747 58.2925 57.2026V44.6035C58.2925 43.7334 58.6001 42.9907 59.2153 42.3755C59.8306 41.7603 60.5732 41.4526 61.4434 41.4526H63.2451C63.6143 41.4526 63.9321 41.5845 64.1987 41.8481C64.4624 42.1118 64.5942 42.4297 64.5942 42.8018C64.5942 43.1738 64.4624 43.4917 64.1987 43.7554C63.9321 44.019 63.6143 44.1509 63.2451 44.1509H61.4434C61.3174 44.1509 61.2119 44.1963 61.127 44.2871C61.0391 44.3721 60.9951 44.4775 60.9951 44.6035V57.2026C60.9951 57.5747 60.8618 57.8926 60.5952 58.1562C60.3315 58.4199 60.0137 58.5518 59.6416 58.5518ZM71.832 57.6509C72.4531 57.6509 72.9834 57.4312 73.4229 56.9917C73.8623 56.5522 74.082 56.022 74.082 55.4009V51.8018H74.0381C74.0381 51.1807 73.8184 50.6504 73.3789 50.2109C72.9482 49.7803 72.4282 49.5605 71.8188 49.5518C71.6987 49.5547 71.5977 49.5986 71.5156 49.6836C71.4277 49.7715 71.3838 49.877 71.3838 50C71.3838 50.126 71.4277 50.2329 71.5156 50.3208C71.6006 50.4087 71.7061 50.4526 71.832 50.4526C72.1865 50.4644 72.4897 50.5962 72.7417 50.8481C73.0024 51.1118 73.1328 51.4297 73.1328 51.8018H73.1812V55.4009C73.1812 55.7729 73.0493 56.0908 72.7856 56.3545C72.522 56.6182 72.2041 56.75 71.832 56.75H68.2329C67.8608 56.75 67.543 56.6182 67.2793 56.3545C67.0156 56.0908 66.8838 55.7729 66.8838 55.4009V44.6035C66.8838 44.2314 67.0156 43.9136 67.2793 43.6499C67.543 43.3833 67.8608 43.25 68.2329 43.25H71.832C71.9199 43.25 72.0093 43.2588 72.1001 43.2764C72.1851 43.2939 72.2686 43.3188 72.3506 43.3511C72.4092 43.3745 72.4663 43.3862 72.522 43.3862C72.5776 43.3862 72.6348 43.3745 72.6934 43.3511C72.8076 43.3042 72.8882 43.2236 72.9351 43.1094C72.9585 43.0508 72.9702 42.9922 72.9702 42.9336C72.9702 42.8779 72.9585 42.8223 72.9351 42.7666C72.8882 42.6523 72.8076 42.5703 72.6934 42.5205C72.5586 42.4648 72.4194 42.4238 72.2759 42.3975C72.1323 42.3682 71.9844 42.3535 71.832 42.3535H68.2329C67.6118 42.3535 67.0815 42.5732 66.6421 43.0127C66.2026 43.4521 65.9829 43.9824 65.9829 44.6035V55.4009C65.9829 56.022 66.2026 56.5522 66.6421 56.9917C67.0815 57.4312 67.6118 57.6509 68.2329 57.6509H71.832ZM68.2329 58.5518C67.3628 58.5518 66.6201 58.2441 66.0049 57.6289C65.3896 57.0137 65.082 56.271 65.082 55.4009V44.6035C65.082 43.7334 65.3896 42.9907 66.0049 42.3755C66.6201 41.7603 67.3628 41.4526 68.2329 41.4526H71.832C72.043 41.4526 72.251 41.4731 72.4561 41.5142C72.6553 41.5552 72.8486 41.6138 73.0361 41.6899C73.3789 41.8335 73.6235 42.0767 73.77 42.4194C73.8403 42.5923 73.8755 42.7651 73.8755 42.938C73.8755 43.1108 73.8403 43.2837 73.77 43.4565C73.6265 43.7993 73.3818 44.0425 73.0361 44.186C72.8633 44.2593 72.6919 44.2959 72.522 44.2959C72.3491 44.2959 72.1763 44.2593 72.0034 44.186C71.9478 44.1626 71.8906 44.1509 71.832 44.1509H68.2329C68.1069 44.1509 68.0015 44.1963 67.9165 44.2871C67.8257 44.3721 67.7803 44.4775 67.7803 44.6035V55.4009C67.7803 55.5269 67.8257 55.6323 67.9165 55.7173C68.0015 55.8081 68.1069 55.8535 68.2329 55.8535H71.832C71.9551 55.8535 72.0605 55.8081 72.1484 55.7173C72.2363 55.6323 72.2803 55.5269 72.2803 55.4009V51.8018H72.2363C72.2363 51.6787 72.1909 51.5732 72.1001 51.4854C72.0151 51.3975 71.9097 51.3535 71.7837 51.3535C71.4321 51.3418 71.1304 51.21 70.8784 50.958C70.6147 50.6914 70.4829 50.3721 70.4829 50C70.4829 49.6309 70.6147 49.313 70.8784 49.0464C71.1304 48.7944 71.4336 48.6626 71.7881 48.6509H71.832C72.6816 48.6626 73.4097 48.9702 74.0161 49.5737C74.6313 50.1919 74.939 50.9346 74.939 51.8018H74.9829V55.4009C74.9829 56.271 74.6753 57.0137 74.0601 57.6289C73.4419 58.2441 72.6992 58.5518 71.832 58.5518H68.2329Z" fill="#3CC041"/>
<path d="M79.0347 57.6509C79.1606 57.6509 79.2661 57.6069 79.3511 57.519C79.4419 57.4312 79.4873 57.3257 79.4873 57.2026C79.4873 57.0854 79.4346 56.98 79.3291 56.8862C79.2354 56.7954 79.1372 56.75 79.0347 56.75C78.9116 56.75 78.8062 56.7954 78.7183 56.8862C78.6304 56.9712 78.5864 57.0767 78.5864 57.2026C78.5864 57.3257 78.6304 57.4312 78.7183 57.519C78.8062 57.6069 78.9116 57.6509 79.0347 57.6509ZM79.0347 58.5518C78.6626 58.5518 78.3447 58.4199 78.0811 58.1562C77.8174 57.8926 77.6855 57.5747 77.6855 57.2026C77.6855 56.8306 77.8174 56.5127 78.0811 56.249C78.3447 55.9854 78.6626 55.8535 79.0347 55.8535C79.4067 55.8535 79.7246 55.9854 79.9883 56.249C80.252 56.5127 80.3838 56.8306 80.3838 57.2026C80.3838 57.5747 80.252 57.8926 79.9883 58.1562C79.7246 58.4199 79.4067 58.5518 79.0347 58.5518Z" fill="#F8FFFD"/>
</svg>
